<mxfile host="Electron" modified="2023-04-14T01:03:54.408Z" agent="Mozilla/5.0 (Macintosh; Intel Mac OS X 10_15_7) AppleWebKit/537.36 (KHTML, like Gecko) draw.io/21.1.2 Chrome/106.0.5249.199 Electron/21.4.3 Safari/537.36" etag="V2ri2RCDRcSMC4lOf-Ti" version="21.1.2" type="device">
  <diagram name="Page-1" id="ho9Y5zXhBa68_LpQp0yT">
    <mxGraphModel dx="1114" dy="999" grid="1" gridSize="10" guides="1" tooltips="1" connect="1" arrows="1" fold="1" page="1" pageScale="1" pageWidth="850" pageHeight="1100" math="0" shadow="0">
      <root>
        <mxCell id="0" />
        <mxCell id="1" parent="0" />
        <mxCell id="qlaEgtAQqIvXGTwRfM36-4" value="" style="edgeStyle=orthogonalEdgeStyle;rounded=0;orthogonalLoop=1;jettySize=auto;html=1;" edge="1" parent="1" source="qlaEgtAQqIvXGTwRfM36-1" target="qlaEgtAQqIvXGTwRfM36-3">
          <mxGeometry relative="1" as="geometry" />
        </mxCell>
        <mxCell id="qlaEgtAQqIvXGTwRfM36-1" value="Push Queue" style="rounded=1;whiteSpace=wrap;html=1;" vertex="1" parent="1">
          <mxGeometry x="360" y="480" width="120" height="60" as="geometry" />
        </mxCell>
        <mxCell id="qlaEgtAQqIvXGTwRfM36-5" style="edgeStyle=orthogonalEdgeStyle;rounded=0;orthogonalLoop=1;jettySize=auto;html=1;" edge="1" parent="1" source="qlaEgtAQqIvXGTwRfM36-3">
          <mxGeometry relative="1" as="geometry">
            <mxPoint x="420" y="570" as="targetPoint" />
            <Array as="points">
              <mxPoint x="300" y="650" />
              <mxPoint x="300" y="570" />
            </Array>
          </mxGeometry>
        </mxCell>
        <mxCell id="qlaEgtAQqIvXGTwRfM36-8" value="" style="edgeStyle=orthogonalEdgeStyle;rounded=0;orthogonalLoop=1;jettySize=auto;html=1;" edge="1" parent="1" source="qlaEgtAQqIvXGTwRfM36-3" target="qlaEgtAQqIvXGTwRfM36-7">
          <mxGeometry relative="1" as="geometry" />
        </mxCell>
        <mxCell id="qlaEgtAQqIvXGTwRfM36-3" value="Queue Item exists?" style="rhombus;whiteSpace=wrap;html=1;rounded=1;" vertex="1" parent="1">
          <mxGeometry x="380" y="610" width="80" height="80" as="geometry" />
        </mxCell>
        <mxCell id="qlaEgtAQqIvXGTwRfM36-6" value="NO" style="text;html=1;align=center;verticalAlign=middle;resizable=0;points=[];autosize=1;strokeColor=none;fillColor=none;" vertex="1" parent="1">
          <mxGeometry x="330" y="615" width="40" height="30" as="geometry" />
        </mxCell>
        <mxCell id="qlaEgtAQqIvXGTwRfM36-10" value="" style="edgeStyle=orthogonalEdgeStyle;rounded=0;orthogonalLoop=1;jettySize=auto;html=1;" edge="1" parent="1" source="qlaEgtAQqIvXGTwRfM36-7" target="qlaEgtAQqIvXGTwRfM36-9">
          <mxGeometry relative="1" as="geometry" />
        </mxCell>
        <mxCell id="qlaEgtAQqIvXGTwRfM36-7" value="NetworkRequest" style="rounded=1;whiteSpace=wrap;html=1;" vertex="1" parent="1">
          <mxGeometry x="360" y="780" width="120" height="60" as="geometry" />
        </mxCell>
        <mxCell id="qlaEgtAQqIvXGTwRfM36-11" style="edgeStyle=orthogonalEdgeStyle;rounded=0;orthogonalLoop=1;jettySize=auto;html=1;" edge="1" parent="1" source="qlaEgtAQqIvXGTwRfM36-9">
          <mxGeometry relative="1" as="geometry">
            <mxPoint x="420" y="580" as="targetPoint" />
            <Array as="points">
              <mxPoint x="550" y="950" />
              <mxPoint x="550" y="580" />
            </Array>
          </mxGeometry>
        </mxCell>
        <mxCell id="qlaEgtAQqIvXGTwRfM36-13" value="" style="edgeStyle=orthogonalEdgeStyle;rounded=0;orthogonalLoop=1;jettySize=auto;html=1;" edge="1" parent="1" source="qlaEgtAQqIvXGTwRfM36-9" target="qlaEgtAQqIvXGTwRfM36-12">
          <mxGeometry relative="1" as="geometry" />
        </mxCell>
        <mxCell id="qlaEgtAQqIvXGTwRfM36-9" value="Error?" style="rhombus;whiteSpace=wrap;html=1;rounded=1;" vertex="1" parent="1">
          <mxGeometry x="380" y="910" width="80" height="80" as="geometry" />
        </mxCell>
        <mxCell id="qlaEgtAQqIvXGTwRfM36-14" style="edgeStyle=orthogonalEdgeStyle;rounded=0;orthogonalLoop=1;jettySize=auto;html=1;" edge="1" parent="1" source="qlaEgtAQqIvXGTwRfM36-12">
          <mxGeometry relative="1" as="geometry">
            <mxPoint x="300" y="650" as="targetPoint" />
          </mxGeometry>
        </mxCell>
        <mxCell id="qlaEgtAQqIvXGTwRfM36-12" value="Set isSynced to true and drop from Queue" style="whiteSpace=wrap;html=1;rounded=1;" vertex="1" parent="1">
          <mxGeometry x="360" y="1080" width="120" height="60" as="geometry" />
        </mxCell>
        <mxCell id="qlaEgtAQqIvXGTwRfM36-15" value="YES" style="text;html=1;align=center;verticalAlign=middle;resizable=0;points=[];autosize=1;strokeColor=none;fillColor=none;" vertex="1" parent="1">
          <mxGeometry x="465" y="915" width="50" height="30" as="geometry" />
        </mxCell>
        <mxCell id="qlaEgtAQqIvXGTwRfM36-16" value="NO" style="text;html=1;align=center;verticalAlign=middle;resizable=0;points=[];autosize=1;strokeColor=none;fillColor=none;" vertex="1" parent="1">
          <mxGeometry x="420" y="1010" width="40" height="30" as="geometry" />
        </mxCell>
        <mxCell id="qlaEgtAQqIvXGTwRfM36-17" value="YES" style="text;html=1;align=center;verticalAlign=middle;resizable=0;points=[];autosize=1;strokeColor=none;fillColor=none;" vertex="1" parent="1">
          <mxGeometry x="370" y="690" width="50" height="30" as="geometry" />
        </mxCell>
      </root>
    </mxGraphModel>
  </diagram>
</mxfile>
